<svg version="1.1" xmlns="http://www.w3.org/2000/svg" xmlns:xlink="http://www.w3.org/1999/xlink" width="92.48499" height="65.54689" viewBox="0,0,92.48499,65.54689"><defs><linearGradient x1="238.27878" y1="195.55219" x2="238.27878" y2="211.41973" gradientUnits="userSpaceOnUse" id="color-1"><stop offset="0" stop-color="#000000" stop-opacity="0"/><stop offset="1" stop-color="#000000"/></linearGradient></defs><g transform="translate(-193.75751,-147.22655)"><g data-paper-data="{&quot;isPaintingLayer&quot;:true}" fill-rule="nonzero" stroke-linejoin="miter" stroke-miterlimit="10" stroke-dasharray="" stroke-dashoffset="0" style="mix-blend-mode: normal"><path d="M286.24249,194.06461c0,17.92611 -21.68879,18.574 -47.21992,18.574c-25.53113,0 -45.23648,-0.64789 -45.23648,-18.574c0,-17.92611 22.18465,-46.83806 47.71578,-46.83806c25.53113,0 44.74062,28.91194 44.74062,46.83806z" fill="#ff5f5f" stroke="none" stroke-width="0" stroke-linecap="butt"/><path d="M285.39141,198.10393c0,1.39641 -2.83071,8.21205 -5.70083,9.51734c-2.85547,1.29863 -9.09232,3.66623 -16.30828,4.54779c-8.28971,1.01273 -17.8716,0.44667 -25.10352,0.44667c-8.29039,0 -18.43027,-0.42917 -25.9864,-1.71251c-3.55271,-0.60339 -6.77765,-1.30748 -8.85678,-2.07357c-2.07084,-0.76303 -5.76316,-3.32573 -7.32935,-5.88935c-1.52645,-2.49856 -2.34875,-5.99467 -2.34875,-6.82972c0,-1.78398 2.76295,2.70057 8.95122,4.71449c9.01094,2.93254 23.79915,4.34028 35.57006,4.34028c11.58173,0 28.99753,0.0841 38.73767,-2.29103c6.95741,-1.69656 8.37495,-6.59613 8.37495,-4.77039z" fill="url(#color-1)" stroke="none" stroke-width="0" stroke-linecap="butt"/><path d="M230.19869,161.71545v22.87271" fill="none" stroke="none" stroke-width="0" stroke-linecap="round"/><path d="M234.17725,157.30182l-4.31074,20.09786" fill="none" stroke="#000000" stroke-width="2" stroke-linecap="round"/><path d="M250.67276,157.95206l6.78623,19.13993" fill="none" stroke="#000000" stroke-width="2" stroke-linecap="round"/></g></g></svg>