<svg version="1.1" xmlns="http://www.w3.org/2000/svg" xmlns:xlink="http://www.w3.org/1999/xlink" width="15.4903" height="15.14523" viewBox="0,0,15.4903,15.14523"><defs><linearGradient x1="239.71171" y1="183.59348" x2="239.71171" y2="187.25983" gradientUnits="userSpaceOnUse" id="color-1"><stop offset="0" stop-color="#000000" stop-opacity="0"/><stop offset="1" stop-color="#000000"/></linearGradient></defs><g transform="translate(-232.25485,-172.42738)"><g data-paper-data="{&quot;isPaintingLayer&quot;:true}" fill-rule="nonzero" stroke-linejoin="miter" stroke-miterlimit="10" stroke-dasharray="" stroke-dashoffset="0" style="mix-blend-mode: normal"><path d="M247.74515,183.24976c0,4.142 -3.63265,4.2917 -7.90886,4.2917c-4.27621,0 -7.57665,-0.1497 -7.57665,-4.2917c0,-4.142 3.7157,-10.82238 7.99191,-10.82238c4.27621,0 7.4936,6.68038 7.4936,10.82238z" fill="#ff5f5f" stroke="none" stroke-width="0" stroke-linecap="butt"/><path d="M247.6026,184.18309c0,0.32265 -0.47412,1.89747 -0.95483,2.19907c-0.47826,0.30006 -1.52287,0.84712 -2.73147,1.05081c-1.38844,0.234 -2.99331,0.10321 -4.20458,0.10321c-1.38856,0 -3.08688,-0.09916 -4.35246,-0.39569c-0.59504,-0.13942 -1.13519,-0.30211 -1.48342,-0.47912c-0.34684,-0.1763 -0.96527,-0.76844 -1.22759,-1.36079c-0.25566,-0.57732 -0.39339,-1.38512 -0.39339,-1.57807c0,-0.41221 0.46277,0.62399 1.49924,1.08933c1.50924,0.67759 3.98612,1.00286 5.95763,1.00286c1.93982,0 4.85679,0.01943 6.48817,-0.52936c1.1653,-0.39201 1.40272,-1.5241 1.40272,-1.10224z" fill="url(#color-1)" stroke="none" stroke-width="0" stroke-linecap="butt"/><path d="M238.35838,175.77518v5.28496" fill="none" stroke="none" stroke-width="0" stroke-linecap="round"/><path d="M239.02475,174.75537l-0.722,4.6438" fill="none" stroke="#000000" stroke-width="0.5" stroke-linecap="round"/><path d="M241.78758,174.90561l1.13662,4.42247" fill="none" stroke="#000000" stroke-width="0.5" stroke-linecap="round"/></g></g></svg>